<mxfile host="drawio-plugin" agent="Mozilla/5.0 (Windows NT 10.0; Win64; x64) AppleWebKit/537.36 (KHTML, like Gecko) Chrome/111.0.0.0 Safari/537.36" modified="2024-11-20T21:12:43.705Z" version="22.1.22" etag="mbASvdhJxhd_ieLqmzJc" type="embed">
  <diagram name="Page-1" id="zwLSHzP7m4LnoqEudZxr">
    <mxGraphModel dx="1039" dy="501" grid="1" gridSize="10" guides="1" tooltips="1" connect="1" arrows="1" fold="1" page="1" pageScale="1" pageWidth="1169" pageHeight="827" math="0" shadow="0">
      <root>
        <mxCell id="0" />
        <mxCell id="1" parent="0" />
        <mxCell id="BYZOD8SiorqYWOo38onv-17" value="" style="rounded=1;whiteSpace=wrap;html=1;" parent="1" vertex="1">
          <mxGeometry x="1001" y="340" width="120" height="210" as="geometry" />
        </mxCell>
        <mxCell id="BYZOD8SiorqYWOo38onv-1" value="" style="rounded=1;whiteSpace=wrap;html=1;" parent="1" vertex="1">
          <mxGeometry x="360" y="285" width="220" height="270" as="geometry" />
        </mxCell>
        <mxCell id="BYZOD8SiorqYWOo38onv-2" value="" style="rounded=1;whiteSpace=wrap;html=1;" parent="1" vertex="1">
          <mxGeometry x="830" y="285" width="300" height="270" as="geometry" />
        </mxCell>
        <mxCell id="BYZOD8SiorqYWOo38onv-3" value="" style="shape=actor;whiteSpace=wrap;html=1;" parent="1" vertex="1">
          <mxGeometry x="200" y="390" width="40" height="60" as="geometry" />
        </mxCell>
        <mxCell id="BYZOD8SiorqYWOo38onv-4" value="Frontend&lt;div&gt;172.16.XXX.254&lt;/div&gt;" style="text;html=1;align=center;verticalAlign=middle;whiteSpace=wrap;rounded=0;" parent="1" vertex="1">
          <mxGeometry x="440" y="570" width="60" height="30" as="geometry" />
        </mxCell>
        <mxCell id="BYZOD8SiorqYWOo38onv-5" value="Backend&lt;div&gt;172.16.XXX.254:5001&lt;/div&gt;" style="text;html=1;align=center;verticalAlign=middle;whiteSpace=wrap;rounded=0;" parent="1" vertex="1">
          <mxGeometry x="950" y="570" width="60" height="30" as="geometry" />
        </mxCell>
        <mxCell id="BYZOD8SiorqYWOo38onv-6" value="" style="html=1;shadow=0;dashed=0;align=center;verticalAlign=middle;shape=mxgraph.arrows2.arrow;dy=0.6;dx=40;notch=0;" parent="1" vertex="1">
          <mxGeometry x="600" y="344" width="210" height="70" as="geometry" />
        </mxCell>
        <mxCell id="BYZOD8SiorqYWOo38onv-7" value="" style="html=1;shadow=0;dashed=0;align=center;verticalAlign=middle;shape=mxgraph.arrows2.arrow;dy=0.6;dx=40;notch=0;rotation=-180;" parent="1" vertex="1">
          <mxGeometry x="590" y="440" width="210" height="70" as="geometry" />
        </mxCell>
        <mxCell id="BYZOD8SiorqYWOo38onv-8" value="Requêtes HTTP" style="text;html=1;align=center;verticalAlign=middle;whiteSpace=wrap;rounded=0;" parent="1" vertex="1">
          <mxGeometry x="665" y="330" width="60" height="30" as="geometry" />
        </mxCell>
        <mxCell id="BYZOD8SiorqYWOo38onv-11" value="" style="dashed=0;outlineConnect=0;html=1;align=center;labelPosition=center;verticalLabelPosition=bottom;verticalAlign=top;shape=mxgraph.weblogos.json_2" parent="1" vertex="1">
          <mxGeometry x="664.8" y="462.4" width="80.4" height="25.200000000000003" as="geometry" />
        </mxCell>
        <mxCell id="BYZOD8SiorqYWOo38onv-12" value="Serveur API NodeJS" style="outlineConnect=0;dashed=0;verticalLabelPosition=bottom;verticalAlign=top;align=center;html=1;shape=mxgraph.aws3.android;fillColor=#8CC64F;gradientColor=none;" parent="1" vertex="1">
          <mxGeometry x="880" y="366" width="73.5" height="84" as="geometry" />
        </mxCell>
        <mxCell id="BYZOD8SiorqYWOo38onv-14" value="" style="dashed=0;outlineConnect=0;html=1;align=center;labelPosition=center;verticalLabelPosition=bottom;verticalAlign=top;shape=mxgraph.weblogos.json" parent="1" vertex="1">
          <mxGeometry x="1031" y="312.5" width="60" height="65" as="geometry" />
        </mxCell>
        <mxCell id="BYZOD8SiorqYWOo38onv-15" value="" style="sketch=0;outlineConnect=0;fontColor=#232F3E;gradientColor=none;fillColor=#ED7100;strokeColor=none;dashed=0;verticalLabelPosition=bottom;verticalAlign=top;align=center;html=1;fontSize=12;fontStyle=0;aspect=fixed;pointerEvents=1;shape=mxgraph.aws4.container_registry_image;" parent="1" vertex="1">
          <mxGeometry x="1037" y="408" width="48" height="48" as="geometry" />
        </mxCell>
        <mxCell id="BYZOD8SiorqYWOo38onv-16" value="Base de données fichiers et images" style="text;html=1;align=center;verticalAlign=middle;whiteSpace=wrap;rounded=0;" parent="1" vertex="1">
          <mxGeometry x="1031" y="480" width="60" height="30" as="geometry" />
        </mxCell>
        <mxCell id="BYZOD8SiorqYWOo38onv-20" value="Client Javascript" style="outlineConnect=0;dashed=0;verticalLabelPosition=bottom;verticalAlign=top;align=center;html=1;shape=mxgraph.aws3.android;fillColor=#205E00;gradientColor=none;" parent="1" vertex="1">
          <mxGeometry x="433.25" y="372" width="73.5" height="84" as="geometry" />
        </mxCell>
        <mxCell id="BYZOD8SiorqYWOo38onv-21" value="" style="shape=flexArrow;endArrow=classic;html=1;rounded=0;entryX=-0.018;entryY=0.544;entryDx=0;entryDy=0;entryPerimeter=0;" parent="1" target="BYZOD8SiorqYWOo38onv-1" edge="1">
          <mxGeometry width="50" height="50" relative="1" as="geometry">
            <mxPoint x="260" y="433" as="sourcePoint" />
            <mxPoint x="310" y="383" as="targetPoint" />
          </mxGeometry>
        </mxCell>
        <mxCell id="BYZOD8SiorqYWOo38onv-22" value="Utilisateur" style="text;html=1;align=center;verticalAlign=middle;whiteSpace=wrap;rounded=0;" parent="1" vertex="1">
          <mxGeometry x="190" y="460" width="60" height="30" as="geometry" />
        </mxCell>
      </root>
    </mxGraphModel>
  </diagram>
</mxfile>
